<svg width="175" height="44" viewBox="0 0 175 44" fill="none" xmlns="http://www.w3.org/2000/svg">
<path d="M6.79499 1.68291C6.9507 0.713168 7.78752 0 8.76969 0H172.595C173.846 0 174.79 1.13475 174.562 2.36435L167.151 42.3644C166.975 43.3123 166.148 44 165.184 44H2.34677C1.11569 44 0.176884 42.8984 0.372061 41.6829L6.79499 1.68291Z" fill="#E11138"/>
<path d="M39.8969 13.3156L35.2868 31H30.0722L27.2507 19.3615L24.3285 31H19.1139L14.6298 13.3156H19.2398L21.7842 26.1884L24.9331 13.3156H29.6691L32.6921 26.1884L35.2616 13.3156H39.8969ZM55.3079 23.7449C55.3079 24.1479 55.2828 24.5678 55.2324 25.0044H45.4833C45.5504 25.8777 45.8275 26.5495 46.3146 27.0197C46.8184 27.4732 47.4314 27.6999 48.1536 27.6999C49.2284 27.6999 49.9757 27.2465 50.3956 26.3396H54.9805C54.7453 27.2633 54.3171 28.0946 53.6957 28.8335C53.0911 29.5725 52.327 30.1519 51.4033 30.5717C50.4796 30.9916 49.4467 31.2015 48.3047 31.2015C46.9276 31.2015 45.7016 30.9076 44.6268 30.3198C43.5519 29.732 42.7122 28.8923 42.1076 27.8007C41.503 26.709 41.2007 25.4327 41.2007 23.9716C41.2007 22.5105 41.4946 21.2341 42.0824 20.1425C42.687 19.0508 43.5267 18.2111 44.6016 17.6233C45.6764 17.0355 46.9108 16.7416 48.3047 16.7416C49.665 16.7416 50.8742 17.0271 51.9323 17.5981C52.9903 18.1691 53.8132 18.9837 54.401 20.0417C55.0056 21.0997 55.3079 22.3341 55.3079 23.7449ZM50.8994 22.6112C50.8994 21.8723 50.6475 21.2845 50.1437 20.8478C49.6399 20.4112 49.0101 20.1929 48.2543 20.1929C47.5322 20.1929 46.9192 20.4028 46.4153 20.8226C45.9283 21.2425 45.626 21.8387 45.5085 22.6112H50.8994ZM61.8882 18.9333C62.2913 18.2783 62.8707 17.7493 63.6264 17.3462C64.3822 16.9431 65.2471 16.7416 66.2212 16.7416C67.38 16.7416 68.4296 17.0355 69.3701 17.6233C70.3106 18.2111 71.0495 19.0508 71.587 20.1425C72.1412 21.2341 72.4183 22.5021 72.4183 23.9464C72.4183 25.3907 72.1412 26.6671 71.587 27.7755C71.0495 28.8671 70.3106 29.7152 69.3701 30.3198C68.4296 30.9076 67.38 31.2015 66.2212 31.2015C65.2303 31.2015 64.3654 31.0084 63.6264 30.6221C62.8875 30.2191 62.3081 29.69 61.8882 29.0351V31H57.5805V12.3583H61.8882V18.9333ZM68.035 23.9464C68.035 22.8715 67.7327 22.0318 67.1281 21.4272C66.5403 20.8058 65.8097 20.4951 64.9364 20.4951C64.0799 20.4951 63.3493 20.8058 62.7447 21.4272C62.1569 22.0486 61.863 22.8967 61.863 23.9716C61.863 25.0464 62.1569 25.8945 62.7447 26.5159C63.3493 27.1373 64.0799 27.448 64.9364 27.448C65.7929 27.448 66.5235 27.1373 67.1281 26.5159C67.7327 25.8777 68.035 25.0212 68.035 23.9464Z" fill="black"/>
<path d="M73.9477 22.1326C73.9477 20.386 74.3255 18.8325 75.0813 17.4722C75.837 16.095 76.8867 15.0286 78.2302 14.2728C79.5906 13.5003 81.1272 13.114 82.8403 13.114C84.9396 13.114 86.7366 13.6683 88.2313 14.7767C89.7259 15.8851 90.7252 17.3966 91.229 19.3111H86.493C86.1404 18.5722 85.6365 18.0096 84.9815 17.6233C84.3434 17.237 83.6128 17.0439 82.7899 17.0439C81.4631 17.0439 80.3883 17.5058 79.5654 18.4294C78.7425 19.3531 78.331 20.5875 78.331 22.1326C78.331 23.6777 78.7425 24.9121 79.5654 25.8357C80.3883 26.7594 81.4631 27.2213 82.7899 27.2213C83.6128 27.2213 84.3434 27.0281 84.9815 26.6419C85.6365 26.2556 86.1404 25.693 86.493 24.954H91.229C90.7252 26.8686 89.7259 28.3801 88.2313 29.4885C86.7366 30.5801 84.9396 31.126 82.8403 31.126C81.1272 31.126 79.5906 30.7481 78.2302 29.9923C76.8867 29.2198 75.837 28.1534 75.0813 26.793C74.3255 25.4327 73.9477 23.8792 73.9477 22.1326ZM93.0106 23.9464C93.0106 22.5021 93.2793 21.2341 93.8167 20.1425C94.3709 19.0508 95.1182 18.2111 96.0587 17.6233C96.9992 17.0355 98.0489 16.7416 99.2077 16.7416C100.199 16.7416 101.063 16.9431 101.802 17.3462C102.558 17.7493 103.138 18.2783 103.541 18.9333V16.9431H107.848V31H103.541V29.0099C103.121 29.6649 102.533 30.1939 101.777 30.5969C101.038 31 100.173 31.2015 99.1825 31.2015C98.0405 31.2015 96.9992 30.9076 96.0587 30.3198C95.1182 29.7152 94.3709 28.8671 93.8167 27.7755C93.2793 26.6671 93.0106 25.3907 93.0106 23.9464ZM103.541 23.9716C103.541 22.8967 103.238 22.0486 102.634 21.4272C102.046 20.8058 101.324 20.4951 100.467 20.4951C99.6107 20.4951 98.8802 20.8058 98.2756 21.4272C97.6878 22.0318 97.3939 22.8715 97.3939 23.9464C97.3939 25.0212 97.6878 25.8777 98.2756 26.5159C98.8802 27.1373 99.6107 27.448 100.467 27.448C101.324 27.448 102.046 27.1373 102.634 26.5159C103.238 25.8945 103.541 25.0464 103.541 23.9716ZM115.273 19.286C115.776 18.5134 116.406 17.9088 117.162 17.4722C117.918 17.0187 118.757 16.792 119.681 16.792V21.3517H118.497C117.422 21.3517 116.616 21.5868 116.079 22.057C115.541 22.5105 115.273 23.3166 115.273 24.4754V31H110.965V16.9431H115.273V19.286ZM126.048 19.286C126.552 18.5134 127.181 17.9088 127.937 17.4722C128.693 17.0187 129.533 16.792 130.456 16.792V21.3517H129.272C128.197 21.3517 127.391 21.5868 126.854 22.057C126.317 22.5105 126.048 23.3166 126.048 24.4754V31H121.74V16.9431H126.048V19.286ZM138.914 31.2015C137.537 31.2015 136.294 30.9076 135.186 30.3198C134.094 29.732 133.229 28.8923 132.591 27.8007C131.97 26.709 131.659 25.4327 131.659 23.9716C131.659 22.5273 131.978 21.2593 132.616 20.1677C133.254 19.0592 134.128 18.2111 135.236 17.6233C136.344 17.0355 137.587 16.7416 138.964 16.7416C140.341 16.7416 141.584 17.0355 142.693 17.6233C143.801 18.2111 144.674 19.0592 145.313 20.1677C145.951 21.2593 146.27 22.5273 146.27 23.9716C146.27 25.4159 145.942 26.6923 145.287 27.8007C144.649 28.8923 143.768 29.732 142.642 30.3198C141.534 30.9076 140.291 31.2015 138.914 31.2015ZM138.914 27.4732C139.737 27.4732 140.434 27.1709 141.005 26.5663C141.593 25.9617 141.887 25.0968 141.887 23.9716C141.887 22.8464 141.601 21.9814 141.03 21.3769C140.476 20.7723 139.787 20.47 138.964 20.47C138.125 20.47 137.428 20.7723 136.873 21.3769C136.319 21.9647 136.042 22.8296 136.042 23.9716C136.042 25.0968 136.311 25.9617 136.848 26.5663C137.402 27.1709 138.091 27.4732 138.914 27.4732ZM154.274 31.2015C153.048 31.2015 151.956 30.9916 150.999 30.5717C150.042 30.1519 149.286 29.5809 148.732 28.8587C148.177 28.1198 147.867 27.2969 147.799 26.39H152.057C152.107 26.877 152.334 27.2717 152.737 27.574C153.14 27.8763 153.636 28.0274 154.223 28.0274C154.761 28.0274 155.172 27.9266 155.458 27.7251C155.76 27.5068 155.911 27.2297 155.911 26.8938C155.911 26.4907 155.701 26.1968 155.281 26.0121C154.862 25.8106 154.181 25.5922 153.241 25.3571C152.233 25.122 151.393 24.8785 150.722 24.6266C150.05 24.3578 149.471 23.9464 148.983 23.3922C148.496 22.8212 148.253 22.057 148.253 21.0997C148.253 20.2936 148.471 19.5631 148.908 18.9081C149.361 18.2363 150.016 17.7073 150.873 17.321C151.746 16.9348 152.779 16.7416 153.971 16.7416C155.735 16.7416 157.12 17.1783 158.128 18.0516C159.152 18.9249 159.74 20.0837 159.891 21.528H155.911C155.844 21.041 155.626 20.6547 155.256 20.3692C154.903 20.0837 154.433 19.9409 153.845 19.9409C153.342 19.9409 152.955 20.0417 152.687 20.2432C152.418 20.428 152.284 20.6883 152.284 21.0242C152.284 21.4272 152.494 21.7295 152.913 21.9311C153.35 22.1326 154.022 22.3341 154.929 22.5357C155.97 22.8044 156.818 23.0731 157.473 23.3418C158.128 23.5937 158.699 24.0136 159.186 24.6014C159.69 25.1724 159.95 25.9449 159.967 26.919C159.967 27.7419 159.732 28.4809 159.262 29.1358C158.808 29.774 158.145 30.2778 157.271 30.6473C156.415 31.0168 155.416 31.2015 154.274 31.2015Z" fill="white"/>
</svg>
